<?xml version="1.0" encoding="UTF-8" standalone="no"?><!DOCTYPE svg PUBLIC "-//W3C//DTD SVG 1.1//EN" "http://www.w3.org/Graphics/SVG/1.1/DTD/svg11.dtd"><svg width="100%" height="100%" viewBox="0 0 5000 5000" version="1.1" xmlns="http://www.w3.org/2000/svg" xmlns:xlink="http://www.w3.org/1999/xlink" xml:space="preserve" xmlns:serif="http://www.serif.com/" style="fill-rule:evenodd;clip-rule:evenodd;stroke-linejoin:round;stroke-miterlimit:2;"><path d="M5000,208.333c0,-114.982 -93.351,-208.333 -208.333,-208.333l-4583.33,-0c-114.982,-0 -208.333,93.351 -208.333,208.333l-0,4583.33c-0,114.982 93.351,208.333 208.333,208.333l4583.33,0c114.982,0 208.333,-93.351 208.333,-208.333l0,-4583.33Z"/><path d="M1537.4,1964.95c-100.867,-0 -188.983,-20.117 -264.35,-60.35c-75.367,-40.233 -133.733,-95.483 -175.1,-165.75c-41.367,-70.267 -62.05,-150.167 -62.05,-239.7c-0,-90.667 20.117,-170.85 60.35,-240.55c40.233,-69.7 95.767,-124.383 166.6,-164.05c70.833,-39.667 151.583,-59.5 242.25,-59.5c88.4,0 167.167,19.267 236.3,57.8c69.133,38.533 123.533,92.933 163.2,163.2c39.667,70.267 59.5,153 59.5,248.2c0,9.067 -0.283,19.267 -0.85,30.6c-0.567,11.333 -1.417,22.1 -2.55,32.3l-756.5,0l-0,-141.1l644.3,0l-83.3,44.2c1.133,-52.133 -9.633,-98.033 -32.3,-137.7c-22.667,-39.667 -53.55,-70.833 -92.65,-93.5c-39.1,-22.667 -84.15,-34 -135.15,-34c-52.133,0 -97.75,11.333 -136.85,34c-39.1,22.667 -69.7,54.117 -91.8,94.35c-22.1,40.233 -33.15,87.55 -33.15,141.95l-0,34c-0,54.4 12.467,102.567 37.4,144.5c24.933,41.933 60.067,74.233 105.4,96.9c45.333,22.667 97.467,34 156.4,34c51,0 96.9,-7.933 137.7,-23.8c40.8,-15.867 77.067,-40.8 108.8,-74.8l113.9,130.9c-40.8,47.6 -92.083,84.15 -153.85,109.65c-61.767,25.5 -132.317,38.25 -211.65,38.25Z" style="fill:#fff;fill-rule:nonzero;"/><path d="M3108.15,1953.9l0,-134.3l559.3,-676.6l39.1,73.1l-588.2,0l0,-170l758.2,0l0,134.3l-559.3,676.6l-42.5,-73.1l617.1,0l0,170l-783.7,0Z" style="fill:#fff;fill-rule:nonzero;"/><path d="M1521.25,3959.9c-73.667,-0 -140.817,-17 -201.45,-51c-60.633,-34 -108.8,-85.283 -144.5,-153.85c-35.7,-68.567 -53.55,-155.55 -53.55,-260.95c0,-106.533 17.283,-193.8 51.85,-261.8c34.567,-68 81.883,-118.717 141.95,-152.15c60.067,-33.433 128.633,-50.15 205.7,-50.15c89.533,0 168.583,19.267 237.15,57.8c68.567,38.533 122.967,92.367 163.2,161.5c40.233,69.133 60.35,150.733 60.35,244.8c0,94.067 -20.117,175.95 -60.35,245.65c-40.233,69.7 -94.633,123.817 -163.2,162.35c-68.567,38.533 -147.617,57.8 -237.15,57.8Zm-503.2,317.9l0,-1237.6l202.3,0l0,214.2l-6.8,241.4l17,241.4l0,540.6l-212.5,0Zm479.4,-499.8c51,0 96.617,-11.333 136.85,-34c40.233,-22.667 72.25,-55.533 96.05,-98.6c23.8,-43.067 35.7,-93.5 35.7,-151.3c0,-58.933 -11.9,-109.65 -35.7,-152.15c-23.8,-42.5 -55.817,-75.083 -96.05,-97.75c-40.233,-22.667 -85.85,-34 -136.85,-34c-51,0 -96.9,11.333 -137.7,34c-40.8,22.667 -73.1,55.25 -96.9,97.75c-23.8,42.5 -35.7,93.217 -35.7,152.15c0,57.8 11.9,108.233 35.7,151.3c23.8,43.067 56.1,75.933 96.9,98.6c40.8,22.667 86.7,34 137.7,34Z" style="fill:#fff;fill-rule:nonzero;"/><path d="M3108.15,3953.9l0,-134.3l559.3,-676.6l39.1,73.1l-588.2,0l0,-170l758.2,0l0,134.3l-559.3,676.6l-42.5,-73.1l617.1,0l0,170l-783.7,0Z" style="fill:#fff;fill-rule:nonzero;"/></svg>